<?xml version="1.0" encoding="utf-8"?>
<svg xmlns="http://www.w3.org/2000/svg" xmlns:xlink="http://www.w3.org/1999/xlink" width="2404" height="1080">
  <clipPath id="cl_3">
    <rect width="2404" height="1080"></rect>
  </clipPath>
  <g clip-path="url(#cl_3)">
    <path fill="#313131" d="M-0 -0L2404 0L2404 1080L-0 1080L0 -0Z"></path>
    <path fill="#F2F2F2" transform="translate(1201.5 540)" d="M-1201.5 -540L1202.5 -540L1202.5 540L-1201.5 540L-1201.5 -540Z"></path>
    <path fill="#F2F2F2" transform="matrix(1.08768 0 0 1.08768 1202 1448)" d="M249.218 -1238.79C249.218 -1238.79 249.218 -843.866 249.218 -843.866C249.218 -808.526 220.568 -779.876 185.228 -779.876C185.228 -779.876 50.258 -779.876 50.258 -779.876C50.258 -779.876 8.60804 -707.756 8.60804 -707.756C3.86804 -699.546 -3.89196 -699.546 -8.64196 -707.756C-8.64196 -707.756 -50.282 -779.876 -50.282 -779.876C-50.282 -779.876 -185.242 -779.876 -185.242 -779.876C-220.582 -779.876 -249.232 -808.526 -249.232 -843.866C-249.232 -843.866 -249.232 -1239.72 -249.232 -1239.72C-249.232 -1274.55 -221.002 -1302.78 -186.172 -1302.78C-186.172 -1302.78 185.228 -1302.78 185.228 -1302.78C220.568 -1302.78 249.218 -1274.13 249.218 -1238.79Z"></path>
    <path fill="#F2F2F2" transform="matrix(0.769106 0.769106 -0.769106 0.769106 1202 1448)" d="M249.218 -1238.79C249.218 -1238.79 249.218 -843.866 249.218 -843.866C249.218 -808.526 220.568 -779.876 185.228 -779.876C185.228 -779.876 50.2583 -779.876 50.2583 -779.876C50.2583 -779.876 8.60828 -707.756 8.60828 -707.756C3.86829 -699.546 -3.89171 -699.546 -8.64171 -707.756C-8.64171 -707.756 -50.2817 -779.876 -50.2817 -779.876C-50.2817 -779.876 -185.242 -779.876 -185.242 -779.876C-220.582 -779.876 -249.232 -808.526 -249.232 -843.866C-249.232 -843.866 -249.232 -1239.72 -249.232 -1239.72C-249.232 -1274.55 -221.002 -1302.78 -186.172 -1302.78C-186.172 -1302.78 185.228 -1302.78 185.228 -1302.78C220.568 -1302.78 249.218 -1274.13 249.218 -1238.79Z"></path>
    <path fill="#F2F2F2" transform="matrix(0.769106 -0.769106 0.769106 0.769106 1202 1448)" d="M249.218 -1238.79C249.218 -1238.79 249.218 -843.866 249.218 -843.866C249.218 -808.526 220.568 -779.876 185.228 -779.876C185.228 -779.876 50.2582 -779.876 50.2582 -779.876C50.2582 -779.876 8.60816 -707.756 8.60816 -707.756C3.86816 -699.546 -3.89184 -699.546 -8.64184 -707.756C-8.64184 -707.756 -50.2818 -779.876 -50.2818 -779.876C-50.2818 -779.876 -185.242 -779.876 -185.242 -779.876C-220.582 -779.876 -249.232 -808.526 -249.232 -843.866C-249.232 -843.866 -249.232 -1239.72 -249.232 -1239.72C-249.232 -1274.55 -221.002 -1302.78 -186.172 -1302.78C-186.172 -1302.78 185.228 -1302.78 185.228 -1302.78C220.568 -1302.78 249.218 -1274.13 249.218 -1238.79Z"></path>
    <path fill="#F2F2F2" transform="translate(1202 1448.5)" d="M-0.25 -736.5C406.37 -736.5 736 -406.87 736 -0.25C736 406.37 406.37 736 -0.25 736C-406.87 736 -736.5 406.37 -736.5 -0.25C-736.5 -406.87 -406.87 -736.5 -0.25 -736.5Z"></path>
    <path fill="#007DB6" transform="translate(802.217 864.399)" d="M206.48 23.3663C206.48 18.1163 203.47 15.2463 197.1 15.2463C195.701 15.2463 194.79 15.2463 193.04 15.3863L193.04 31.5563C194.09 31.6963 195.001 31.6963 195.98 31.6963C202.49 31.6963 206.48 28.7563 206.48 23.3663ZM193.18 39.9563L193.18 45.9063C193.18 48.5663 193.25 54.0263 193.46 55.9863L181.421 55.9863C181.77 52.6263 181.91 43.6663 181.91 39.1163L181.91 23.6463C181.91 19.1663 181.77 10.1363 181.421 6.77633C183.94 6.77633 192.83 6.42633 196.96 6.42633C210.54 6.42633 217.47 13.0763 217.47 22.1063C217.47 32.1163 210.891 40.0263 195.77 40.0263C194.93 40.0263 194.02 40.0263 193.18 39.9563ZM244.976 21.5463L244.136 31.8363C238.746 31.1363 233.076 32.9563 233.076 38.8363L233.076 48.7763C233.076 51.2263 233.146 54.1663 233.356 55.9863L222.086 55.9863C222.436 52.9763 222.506 48.1463 222.506 44.0863L222.506 33.6563C222.506 29.5963 222.366 26.0263 221.946 23.0863C224.256 23.0863 230.346 22.2463 232.446 21.8963L233.006 29.6663C235.246 24.9063 239.096 22.1063 244.976 21.5463ZM257.46 36.1063L270.76 35.7563C270.34 31.3463 268.59 28.8963 264.74 28.8963C260.61 28.8963 258.02 31.9763 257.46 36.1063ZM280.14 38.0663L276.92 40.7963L257.39 41.3563C257.74 46.4663 260.68 49.1963 266.28 49.1963C271.53 49.1963 275.45 47.3763 278.81 45.2063L278.6 53.2563C274.61 55.7063 270.27 57.1763 265.09 57.1763C253.05 57.1763 247.17 49.4063 247.17 40.0263C247.17 29.3163 254.45 21.5463 265.09 21.5463C275.59 21.5463 280.14 28.8963 280.14 38.0663ZM298.677 21.5463C303.087 21.5463 307.357 22.5963 309.947 23.8563L307.637 31.3463C305.257 29.8763 302.317 28.8963 299.447 28.8963C296.647 28.8963 294.897 29.8763 294.897 31.9063C294.897 36.1763 311.417 35.2663 311.417 45.9063C311.417 53.1863 305.327 57.2463 296.997 57.2463C293.217 57.2463 287.407 56.1263 284.467 54.4463L284.817 46.0463C287.897 47.9363 292.727 49.8263 296.857 49.8263C299.867 49.8263 301.617 48.7063 301.617 46.8863C301.617 41.9863 285.237 43.3163 285.237 32.3263C285.237 26.3063 290.347 21.5463 298.677 21.5463ZM329.609 21.5463C334.019 21.5463 338.289 22.5963 340.879 23.8563L338.569 31.3463C336.189 29.8763 333.249 28.8963 330.379 28.8963C327.579 28.8963 325.829 29.8763 325.829 31.9063C325.829 36.1763 342.349 35.2663 342.349 45.9063C342.349 53.1863 336.259 57.2463 327.929 57.2463C324.149 57.2463 318.339 56.1263 315.399 54.4463L315.749 46.0463C318.829 47.9363 323.659 49.8263 327.789 49.8263C330.799 49.8263 332.549 48.7063 332.549 46.8863C332.549 41.9863 316.169 43.3163 316.169 32.3263C316.169 26.3063 321.279 21.5463 329.609 21.5463ZM390.214 24.5563L388.324 32.6063C386.014 30.7163 383.284 29.7363 380.484 29.7363C375.094 29.7363 371.454 33.8663 371.454 39.1163C371.454 45.5563 376.004 48.9163 380.974 48.9163C384.404 48.9163 386.854 47.9363 389.934 45.1363L389.584 54.3763C386.294 56.3363 383.354 57.2463 379.014 57.2463C367.954 57.2463 360.954 49.5463 360.954 40.3063C360.954 29.8063 368.514 21.5463 379.644 21.5463C383.424 21.5463 387.344 22.5963 390.214 24.5563ZM408.548 10.5563C408.548 13.9863 405.748 16.3663 402.318 16.3663C398.888 16.3663 396.228 14.0563 396.228 10.9063C396.228 7.47633 399.028 5.02633 402.528 5.02633C405.818 5.02633 408.548 7.40633 408.548 10.5563ZM407.638 55.9863L396.298 55.9863C396.648 52.9763 396.788 48.6363 396.788 44.5063L396.788 34.4963C396.788 30.4363 396.648 25.6063 396.298 22.5963C398.818 22.5963 405.538 22.1763 407.638 21.9663C407.428 23.7863 407.358 27.0063 407.358 29.4563L407.358 49.1963C407.358 51.6463 407.428 54.1663 407.638 55.9863ZM438.296 21.5463L437.456 31.8363C432.066 31.1363 426.396 32.9563 426.396 38.8363L426.396 48.7763C426.396 51.2263 426.466 54.1663 426.676 55.9863L415.406 55.9863C415.756 52.9763 415.826 48.1463 415.826 44.0863L415.826 33.6563C415.826 29.5963 415.686 26.0263 415.266 23.0863C417.576 23.0863 423.666 22.2463 425.766 21.8963L426.326 29.6663C428.566 24.9063 432.416 22.1063 438.296 21.5463ZM469.75 24.5563L467.861 32.6063C465.551 30.7163 462.82 29.7363 460.021 29.7363C454.63 29.7363 450.991 33.8663 450.991 39.1163C450.991 45.5563 455.54 48.9163 460.51 48.9163C463.94 48.9163 466.391 47.9363 469.47 45.1363L469.12 54.3763C465.831 56.3363 462.891 57.2463 458.551 57.2463C447.491 57.2463 440.491 49.5463 440.491 40.3063C440.491 29.8063 448.051 21.5463 459.18 21.5463C462.961 21.5463 466.88 22.5963 469.75 24.5563ZM487.174 55.9863L475.904 55.9863C476.184 52.9763 476.324 48.4263 476.324 44.2963L476.324 17.5563C476.324 13.4963 476.184 9.29633 475.904 6.28632C478.354 6.14633 485.074 5.44632 487.174 5.02633C486.964 6.84632 486.894 13.0763 486.894 14.3363L486.894 48.9863C486.894 51.4363 486.964 54.1663 487.174 55.9863ZM503.622 36.1063L516.922 35.7563C516.502 31.3463 514.752 28.8963 510.902 28.8963C506.772 28.8963 504.182 31.9763 503.622 36.1063ZM526.302 38.0663L523.082 40.7963L503.552 41.3563C503.902 46.4663 506.842 49.1963 512.442 49.1963C517.692 49.1963 521.612 47.3763 524.972 45.2063L524.762 53.2563C520.772 55.7063 516.432 57.1763 511.252 57.1763C499.212 57.1763 493.332 49.4063 493.332 40.0263C493.332 29.3163 500.612 21.5463 511.252 21.5463C521.752 21.5463 526.302 28.8963 526.302 38.0663ZM568.289 47.3063L568.009 55.1463C566.049 56.3363 562.969 57.1063 560.169 57.1063C553.099 57.1063 549.109 54.0963 549.109 45.5563L549.109 29.8763L543.369 29.8763L545.049 22.3163L549.249 22.3163L549.879 15.4563L559.679 12.2363L559.679 22.3163L568.289 22.3163C568.149 23.8563 568.079 27.3563 568.079 29.8763L559.679 29.8763L559.679 44.5063C559.679 48.0063 561.009 48.8463 563.249 48.8463C564.999 48.8463 566.889 48.2163 568.289 47.3063ZM596.721 39.6063C596.721 32.3263 593.641 29.3863 589.721 29.3863C585.311 29.3863 582.441 33.0963 582.441 39.1163C582.441 46.3263 585.311 49.4063 589.441 49.4063C593.991 49.4063 596.721 45.7663 596.721 39.6063ZM607.011 38.5563C607.011 49.2663 599.941 57.2463 589.091 57.2463C578.801 57.2463 572.151 49.6163 572.151 40.2363C572.151 29.5263 579.291 21.5463 590.001 21.5463C600.431 21.5463 607.011 29.1763 607.011 38.5563ZM48.6213 99.2463C43.6513 99.2463 40.8513 103.936 40.8513 109.606C40.8513 116.256 44.2113 119.546 48.4113 119.546C51.0013 119.546 53.1713 118.146 54.2913 116.116L54.2913 101.346C52.8913 100.016 51.1413 99.2463 48.6213 99.2463ZM46.9413 91.5463C49.9513 91.5463 52.4013 92.3863 54.2913 93.6463L54.2213 87.4863C54.2213 83.4263 54.1513 79.2963 53.8713 76.2863C56.3913 76.0763 63.0413 75.4463 65.1413 75.0263C64.9313 76.8463 64.8613 80.2763 64.8613 82.6563L64.8613 114.366C64.8613 118.426 65.0013 122.766 65.3513 125.986L55.2713 125.986L54.7813 122.486C52.8913 125.076 49.3213 127.246 45.1213 127.246C35.8113 127.246 30.2813 119.476 30.2813 110.656C30.2813 99.8063 37.2813 91.5463 46.9413 91.5463ZM85.0202 80.5563C85.0202 83.9863 82.2202 86.3663 78.7902 86.3663C75.3602 86.3663 72.7002 84.0563 72.7002 80.9063C72.7002 77.4763 75.5002 75.0263 79.0002 75.0263C82.2902 75.0263 85.0202 77.4063 85.0202 80.5563ZM84.1102 125.986L72.7702 125.986C73.1202 122.976 73.2602 118.636 73.2602 114.506L73.2602 104.496C73.2602 100.436 73.1202 95.6063 72.7702 92.5963C75.2902 92.5963 82.0102 92.1763 84.1102 91.9663C83.9002 93.7863 83.8302 97.0063 83.8302 99.4563L83.8302 119.196C83.8302 121.646 83.9002 124.166 84.1102 125.986ZM104.758 91.5463C109.168 91.5463 113.438 92.5963 116.028 93.8563L113.718 101.346C111.338 99.8763 108.398 98.8963 105.528 98.8963C102.728 98.8963 100.978 99.8763 100.978 101.906C100.978 106.176 117.498 105.266 117.498 115.906C117.498 123.186 111.408 127.246 103.078 127.246C99.2983 127.246 93.4883 126.126 90.5483 124.446L90.8983 116.046C93.9783 117.936 98.8083 119.826 102.938 119.826C105.948 119.826 107.698 118.706 107.698 116.886C107.698 111.986 91.3183 113.316 91.3183 102.326C91.3183 96.3063 96.4283 91.5463 104.758 91.5463ZM150.803 94.5563L148.913 102.606C146.603 100.716 143.873 99.7363 141.073 99.7363C135.683 99.7363 132.043 103.866 132.043 109.116C132.043 115.556 136.593 118.916 141.563 118.916C144.993 118.916 147.443 117.936 150.523 115.136L150.173 124.376C146.883 126.336 143.943 127.246 139.603 127.246C128.543 127.246 121.543 119.546 121.543 110.306C121.543 99.8063 129.103 91.5463 140.233 91.5463C144.013 91.5463 147.933 92.5963 150.803 94.5563ZM179.575 109.606C179.575 102.326 176.495 99.3863 172.575 99.3863C168.165 99.3863 165.295 103.096 165.295 109.116C165.295 116.326 168.165 119.406 172.295 119.406C176.845 119.406 179.575 115.766 179.575 109.606ZM189.865 108.556C189.865 119.266 182.795 127.246 171.945 127.246C161.655 127.246 155.005 119.616 155.005 110.236C155.005 99.5263 162.145 91.5463 172.855 91.5463C183.285 91.5463 189.865 99.1763 189.865 108.556ZM205.845 126.546C204.655 123.256 202.905 119.056 201.085 114.856L197.165 105.826C195.415 101.696 192.965 95.9563 191.355 92.9463C192.475 92.9463 201.365 92.2463 202.275 92.1063L210.115 113.316L213.265 103.866C214.245 100.926 216.205 95.3963 217.115 92.5263C221.035 92.5263 224.535 92.5263 227.755 92.2463L213.895 126.126L205.845 126.546ZM239.294 106.106L252.594 105.756C252.174 101.346 250.424 98.8963 246.574 98.8963C242.444 98.8963 239.854 101.976 239.294 106.106ZM261.974 108.066L258.754 110.796L239.224 111.356C239.574 116.466 242.514 119.196 248.114 119.196C253.364 119.196 257.284 117.376 260.644 115.206L260.434 123.256C256.444 125.706 252.104 127.176 246.924 127.176C234.884 127.176 229.004 119.406 229.004 110.026C229.004 99.3163 236.284 91.5463 246.924 91.5463C257.424 91.5463 261.974 98.8963 261.974 108.066ZM290.52 91.5463L289.68 101.836C284.29 101.136 278.62 102.956 278.62 108.836L278.62 118.776C278.62 121.226 278.69 124.166 278.9 125.986L267.63 125.986C267.98 122.976 268.05 118.146 268.05 114.086L268.05 103.656C268.05 99.5963 267.91 96.0263 267.49 93.0863C269.8 93.0863 275.89 92.2463 277.99 91.8963L278.55 99.6663C280.79 94.9063 284.64 92.1063 290.52 91.5463ZM332.529 109.606C332.529 102.326 329.449 99.3863 325.529 99.3863C321.119 99.3863 318.249 103.096 318.249 109.116C318.249 116.326 321.119 119.406 325.249 119.406C329.799 119.406 332.529 115.766 332.529 109.606ZM342.819 108.556C342.819 119.266 335.749 127.246 324.899 127.246C314.609 127.246 307.959 119.616 307.959 110.236C307.959 99.5263 315.099 91.5463 325.809 91.5463C336.239 91.5463 342.819 99.1763 342.819 108.556ZM382.373 125.986L372.573 125.986L371.453 120.106C369.003 124.446 364.523 127.246 360.113 127.246C352.763 127.246 349.053 122.836 349.053 114.506L349.053 104.286C349.053 100.296 348.913 95.8863 348.703 92.7363C352.623 92.7363 356.683 92.5263 359.973 92.2463C359.693 94.0663 359.623 97.5663 359.623 100.016L359.623 111.916C359.623 116.676 360.883 118.916 364.803 118.916C367.743 118.916 371.313 116.046 371.313 112.406L371.313 104.286C371.313 100.296 371.173 95.8863 370.893 92.7363C374.813 92.7363 379.013 92.5263 382.303 92.2463C382.023 94.0663 381.883 97.5663 381.883 100.016L381.883 114.366C381.883 118.426 382.023 122.836 382.373 125.986ZM412.747 91.5463L411.907 101.836C406.517 101.136 400.847 102.956 400.847 108.836L400.847 118.776C400.847 121.226 400.917 124.166 401.127 125.986L389.857 125.986C390.207 122.976 390.277 118.146 390.277 114.086L390.277 103.656C390.277 99.5963 390.137 96.0263 389.717 93.0863C392.027 93.0863 398.117 92.2463 400.217 91.8963L400.777 99.6663C403.017 94.9063 406.867 92.1063 412.747 91.5463ZM485.555 125.986L474.215 125.986C474.565 122.976 474.635 118.146 474.635 114.086L474.635 106.316C474.635 102.256 473.795 99.8763 470.505 99.8763C466.795 99.8763 463.995 102.886 463.995 106.386L463.995 118.776C463.995 121.226 464.065 124.166 464.275 125.986L452.935 125.986C453.285 122.976 453.355 118.146 453.355 114.086L453.355 106.316C453.355 102.256 452.655 99.8763 449.365 99.8763C445.655 99.8763 442.785 102.886 442.785 106.386L442.785 118.776C442.785 121.226 442.855 124.166 443.065 125.986L431.795 125.986C432.075 122.976 432.215 118.146 432.215 114.086L432.215 104.426C432.215 100.366 432.075 95.8863 431.795 92.8763C434.245 92.8763 440.125 92.1763 442.225 91.9663L442.715 98.2663C445.515 94.0663 449.855 91.5463 453.915 91.5463C459.305 91.5463 462.385 94.2763 463.435 98.5463C465.955 94.3463 470.365 91.5463 475.055 91.5463C482.055 91.5463 485.275 96.0263 485.275 103.446L485.275 118.776C485.275 121.226 485.345 124.166 485.555 125.986ZM505.294 80.5563C505.294 83.9863 502.494 86.3663 499.064 86.3663C495.634 86.3663 492.974 84.0563 492.974 80.9063C492.974 77.4763 495.774 75.0263 499.274 75.0263C502.564 75.0263 505.294 77.4063 505.294 80.5563ZM504.384 125.986L493.044 125.986C493.394 122.976 493.534 118.636 493.534 114.506L493.534 104.496C493.534 100.436 493.394 95.6063 493.044 92.5963C495.564 92.5963 502.284 92.1763 504.384 91.9663C504.174 93.7863 504.104 97.0063 504.104 99.4563L504.104 119.196C504.104 121.646 504.174 124.166 504.384 125.986ZM523.422 125.986L512.152 125.986C512.432 122.976 512.572 118.426 512.572 114.296L512.572 87.5563C512.572 83.4963 512.432 79.2963 512.152 76.2863C514.602 76.1463 521.322 75.4463 523.422 75.0263C523.212 76.8463 523.142 83.0763 523.142 84.3363L523.142 118.986C523.142 121.436 523.212 124.166 523.422 125.986ZM539.87 106.106L553.17 105.756C552.75 101.346 551 98.8963 547.15 98.8963C543.02 98.8963 540.43 101.976 539.87 106.106ZM562.55 108.066L559.33 110.796L539.8 111.356C540.15 116.466 543.09 119.196 548.69 119.196C553.94 119.196 557.86 117.376 561.22 115.206L561.01 123.256C557.02 125.706 552.68 127.176 547.5 127.176C535.46 127.176 529.58 119.406 529.58 110.026C529.58 99.3163 536.86 91.5463 547.5 91.5463C558 91.5463 562.55 98.8963 562.55 108.066ZM581.086 91.5463C585.496 91.5463 589.766 92.5963 592.356 93.8563L590.046 101.346C587.666 99.8763 584.726 98.8963 581.856 98.8963C579.056 98.8963 577.306 99.8763 577.306 101.906C577.306 106.176 593.826 105.266 593.826 115.906C593.826 123.186 587.736 127.246 579.406 127.246C575.626 127.246 569.816 126.126 566.876 124.446L567.226 116.046C570.306 117.936 575.136 119.826 579.266 119.826C582.276 119.826 584.026 118.706 584.026 116.886C584.026 111.986 567.646 113.316 567.646 102.326C567.646 96.3063 572.756 91.5463 581.086 91.5463ZM621.114 117.306L620.834 125.146C618.874 126.336 615.794 127.106 612.994 127.106C605.924 127.106 601.934 124.096 601.934 115.556L601.934 99.8763L596.194 99.8763L597.874 92.3163L602.074 92.3163L602.704 85.4563L612.504 82.2363L612.504 92.3163L621.114 92.3163C620.974 93.8563 620.904 97.3563 620.904 99.8763L612.504 99.8763L612.504 114.506C612.504 118.006 613.834 118.846 616.074 118.846C617.824 118.846 619.714 118.216 621.114 117.306ZM649.545 109.606C649.545 102.326 646.465 99.3863 642.545 99.3863C638.135 99.3863 635.265 103.096 635.265 109.116C635.265 116.326 638.135 119.406 642.265 119.406C646.815 119.406 649.545 115.766 649.545 109.606ZM659.835 108.556C659.835 119.266 652.765 127.246 641.915 127.246C631.625 127.246 624.975 119.616 624.975 110.236C624.975 99.5263 632.115 91.5463 642.825 91.5463C653.255 91.5463 659.835 99.1763 659.835 108.556ZM699.319 125.986L687.979 125.986C688.329 122.976 688.469 118.146 688.469 114.086L688.469 106.316C688.469 102.256 687.419 99.8763 684.059 99.8763C680.209 99.8763 676.779 103.446 676.779 106.876L676.779 118.776C676.779 121.226 676.849 124.166 677.059 125.986L665.789 125.986C666.069 122.976 666.209 118.146 666.209 114.086L666.209 104.426C666.209 100.366 666.069 95.8863 665.789 92.8763C668.239 92.8763 674.119 92.1763 676.219 91.9663L676.709 99.0363C679.509 94.3463 684.479 91.5463 688.889 91.5463C695.819 91.5463 699.039 96.0263 699.039 103.446L699.039 118.776C699.039 121.226 699.179 124.166 699.319 125.986ZM715.553 106.106L728.853 105.756C728.433 101.346 726.683 98.8963 722.833 98.8963C718.703 98.8963 716.113 101.976 715.553 106.106ZM738.233 108.066L735.013 110.796L715.483 111.356C715.833 116.466 718.773 119.196 724.373 119.196C729.623 119.196 733.543 117.376 736.903 115.206L736.693 123.256C732.703 125.706 728.363 127.176 723.183 127.176C711.143 127.176 705.263 119.406 705.263 110.026C705.263 99.3163 712.543 91.5463 723.183 91.5463C733.683 91.5463 738.233 98.8963 738.233 108.066ZM756.77 91.5463C761.18 91.5463 765.45 92.5963 768.04 93.8563L765.73 101.346C763.35 99.8763 760.41 98.8963 757.54 98.8963C754.74 98.8963 752.99 99.8763 752.99 101.906C752.99 106.176 769.51 105.266 769.51 115.906C769.51 123.186 763.42 127.246 755.09 127.246C751.31 127.246 745.5 126.126 742.56 124.446L742.91 116.046C745.99 117.936 750.82 119.826 754.95 119.826C757.96 119.826 759.71 118.706 759.71 116.886C759.71 111.986 743.33 113.316 743.33 102.326C743.33 96.3063 748.44 91.5463 756.77 91.5463Z"></path>
  </g>
</svg>