<?xml version="1.0" encoding="utf-8"?>
<svg xmlns="http://www.w3.org/2000/svg" xmlns:xlink="http://www.w3.org/1999/xlink" width="2404" height="1080">
  <clipPath id="cl_3">
    <rect width="2404" height="1080"></rect>
  </clipPath>
  <g clip-path="url(#cl_3)">
    <path fill="#F2F2F2" transform="matrix(1.08768 0 0 1.08768 1202 1448)" d="M249.218 -1238.79C249.218 -1238.79 249.218 -843.866 249.218 -843.866C249.218 -808.526 220.568 -779.876 185.228 -779.876C185.228 -779.876 50.258 -779.876 50.258 -779.876C50.258 -779.876 8.60804 -707.756 8.60804 -707.756C3.86804 -699.546 -3.89196 -699.546 -8.64196 -707.756C-8.64196 -707.756 -50.282 -779.876 -50.282 -779.876C-50.282 -779.876 -185.242 -779.876 -185.242 -779.876C-220.582 -779.876 -249.232 -808.526 -249.232 -843.866C-249.232 -843.866 -249.232 -1239.72 -249.232 -1239.72C-249.232 -1274.55 -221.002 -1302.78 -186.172 -1302.78C-186.172 -1302.78 185.228 -1302.78 185.228 -1302.78C220.568 -1302.78 249.218 -1274.13 249.218 -1238.79Z"></path>
    <path fill="#F2F2F2" transform="matrix(0.769106 0.769106 -0.769106 0.769106 1202 1448)" d="M249.218 -1238.79C249.218 -1238.79 249.218 -843.866 249.218 -843.866C249.218 -808.526 220.568 -779.876 185.228 -779.876C185.228 -779.876 50.2583 -779.876 50.2583 -779.876C50.2583 -779.876 8.60828 -707.756 8.60828 -707.756C3.86829 -699.546 -3.89171 -699.546 -8.64171 -707.756C-8.64171 -707.756 -50.2817 -779.876 -50.2817 -779.876C-50.2817 -779.876 -185.242 -779.876 -185.242 -779.876C-220.582 -779.876 -249.232 -808.526 -249.232 -843.866C-249.232 -843.866 -249.232 -1239.72 -249.232 -1239.72C-249.232 -1274.55 -221.002 -1302.78 -186.172 -1302.78C-186.172 -1302.78 185.228 -1302.78 185.228 -1302.78C220.568 -1302.78 249.218 -1274.13 249.218 -1238.79Z"></path>
    <path fill="#F2F2F2" transform="matrix(0.769106 -0.769106 0.769106 0.769106 1202 1448)" d="M249.218 -1238.79C249.218 -1238.79 249.218 -843.866 249.218 -843.866C249.218 -808.526 220.568 -779.876 185.228 -779.876C185.228 -779.876 50.2582 -779.876 50.2582 -779.876C50.2582 -779.876 8.60816 -707.756 8.60816 -707.756C3.86816 -699.546 -3.89184 -699.546 -8.64184 -707.756C-8.64184 -707.756 -50.2818 -779.876 -50.2818 -779.876C-50.2818 -779.876 -185.242 -779.876 -185.242 -779.876C-220.582 -779.876 -249.232 -808.526 -249.232 -843.866C-249.232 -843.866 -249.232 -1239.72 -249.232 -1239.72C-249.232 -1274.55 -221.002 -1302.78 -186.172 -1302.78C-186.172 -1302.78 185.228 -1302.78 185.228 -1302.78C220.568 -1302.78 249.218 -1274.13 249.218 -1238.79Z"></path>
  </g>
</svg>