<svg width="533" height="626" viewBox="0 0 533 626" fill="none" xmlns="http://www.w3.org/2000/svg">
<path d="M492.334 0C514.425 0 532.334 17.9086 532.334 40V492.334C532.334 514.425 514.425 532.334 492.334 532.334H320.245L266.167 626L212.089 532.334H40C17.9086 532.334 0 514.425 0 492.334V40C8.13058e-07 17.9086 17.9086 8.12952e-07 40 0H492.334Z" fill="#D9D9D9"/>
<rect x="42.9302" y="33.5636" width="445.693" height="266.948" rx="20" fill="currentColor"/>
<rect x="42.9302" y="362.955" width="445.693" height="21.8554" fill="currentColor"/>
<rect x="42.9302" y="396.519" width="445.693" height="21.8554" fill="currentColor"/>
<rect x="42.9302" y="430.082" width="445.693" height="21.8554" fill="currentColor"/>
<rect x="42.9302" y="463.646" width="247.434" height="21.8554" fill="currentColor"/>
</svg>
